<?xml version="1.0" encoding="utf-8"?>
<!-- Generator: Adobe Illustrator 16.0.0, SVG Export Plug-In . SVG Version: 6.00 Build 0)  -->
<!DOCTYPE svg PUBLIC "-//W3C//DTD SVG 1.1//EN" "http://www.w3.org/Graphics/SVG/1.1/DTD/svg11.dtd">
<svg version="1.1" id="图层_1" xmlns="http://www.w3.org/2000/svg" xmlns:xlink="http://www.w3.org/1999/xlink" x="0px" y="0px"
	 width="481.89px" height="481.89px" viewBox="0 0 481.89 481.89" enable-background="new 0 0 481.89 481.89" xml:space="preserve">
<g>
	<polygon fill="#F9F5AE" stroke="#FFFFFF" stroke-width="3" stroke-miterlimit="10" points="240.988,374.912 86.445,200.847 
		86.445,140.908 240.988,326.217 	"/>
	<g>
		
			<line fill="#F9F5AE" stroke="#FFFFFF" stroke-width="3" stroke-miterlimit="10" x1="86.445" y1="140.908" x2="349.863" y2="235.291"/>
		<path fill="#F9F5AE" stroke="#FFFFFF" stroke-width="3" stroke-miterlimit="10" d="M240.988,326.213L86.445,140.908
			l263.418,94.383c0,50.258-48.697,90.926-108.875,90.926"/>
	</g>
	<path fill="#F9F5AE" stroke="#FFFFFF" stroke-width="3" stroke-miterlimit="10" d="M351.391,236.441v68.398
		c0,0,0.896,68.348-110.039,70.072v-48.695C241.352,326.217,335.676,330.43,351.391,236.441z"/>
</g>
<g>
	<polygon fill="#A3D8EB" stroke="#FFFFFF" stroke-width="3" stroke-miterlimit="10" points="241.57,324.426 87.026,150.36 
		87.026,90.422 241.57,275.73 	"/>
	<g>
		<line fill="#E3EAF4" x1="85.281" y1="90.422" x2="348.699" y2="184.803"/>
		<path fill="#E3EAF4" d="M240.988,272.281L86.444,86.977l263.419,94.381c0,50.26-46.951,90.926-107.129,90.926"/>
	</g>
	<path fill="#A3D8EB" stroke="#FFFFFF" stroke-width="3" stroke-miterlimit="10" d="M350.443,185.955v68.399
		c0,0,0.887,68.348-108.875,70.072l1.166-50.971C242.734,273.455,334.895,279.943,350.443,185.955z"/>
</g>
<g>
	
		<ellipse transform="matrix(0.9533 -0.3021 0.3021 0.9533 -47.7938 83.0654)" fill="#F5ABC8" cx="244.64" cy="196.042" rx="18.205" ry="18.435"/>
	<path fill="#F5ABC8" d="M298.529,200.023c3.078,9.706-2.199,20.036-11.785,23.072c-9.584,3.039-19.846-2.365-22.922-12.073
		c-3.076-9.706,2.199-20.036,11.785-23.074C285.191,184.911,295.455,190.317,298.529,200.023z"/>
	<g>
		<g>
			<path fill="#FFFFFF" d="M251.416,188.353c16.875-1.893,21.641-26.228,24.113-39.646c0.291-1.576-2.117-2.249-2.41-0.665
				c-2.213,12.004-6.471,36.102-21.703,37.811C249.832,186.031,249.814,188.533,251.416,188.353L251.416,188.353z"/>
		</g>
	</g>
	<g>
		<g>
			<path fill="#FFFFFF" d="M282.426,196.184c-0.119-16.664-3.432-32.829-7.682-48.879c-0.412-1.557-2.824-0.896-2.41,0.665
				c4.191,15.834,7.475,31.77,7.592,48.214C279.938,197.795,282.438,197.796,282.426,196.184L282.426,196.184z"/>
		</g>
	</g>
	<g>
		<g>
			<path fill="#FFFFFF" d="M247.951,185.603c0.623,1.507,1.434,2.904,2.271,4.3c0.58,0.967,2.094,0.087,1.512-0.883
				c-0.756-1.259-1.533-2.522-2.096-3.882C249.215,184.11,247.521,184.56,247.951,185.603L247.951,185.603z"/>
		</g>
	</g>
	<g>
		<g>
			<path fill="#FFFFFF" d="M278.748,195.682c1.158,1.139,2.48,2.09,3.793,3.039c0.916,0.663,1.789-0.856,0.883-1.511
				c-1.193-0.864-2.385-1.729-3.438-2.765C279.182,193.653,277.943,194.89,278.748,195.682L278.748,195.682z"/>
		</g>
	</g>
</g>
<g>
	<g>
		<g>
			<path fill="#E3EAF4" d="M271.785,142.328c0.314,3.915,0.947,8.072,0.045,11.946c-0.367,1.569,2.043,2.234,2.41,0.665
				c0.961-4.125,0.379-8.443,0.045-12.611C274.156,140.732,271.656,140.72,271.785,142.328L271.785,142.328z"/>
		</g>
	</g>
	<g>
		<g>
			<path fill="#E3EAF4" d="M272.25,140.824c0.418,4.685,1.656,9.246,2.115,13.917c0.156,1.589,2.658,1.604,2.5,0
				c-0.459-4.674-1.697-9.234-2.115-13.917C274.609,139.231,272.107,139.217,272.25,140.824L272.25,140.824z"/>
		</g>
	</g>
</g>
<path fill="#FFFFFF" d="M271.865,153.438l5.092,1.795c0,0-1.014,2.75-2.633-0.136c0,0-1.117,2.5-2.641-0.17"/>
<line fill="none" stroke="#040504" stroke-width="0.5" stroke-miterlimit="10" x1="181.657" y1="125.333" x2="241.57" y2="125.333"/>
<line fill="none" stroke="#040504" stroke-width="0.5" stroke-miterlimit="10" x1="157.075" y1="331.333" x2="213.483" y2="331.333"/>
<line fill="none" stroke="#040504" stroke-width="0.5" stroke-miterlimit="10" x1="287" y1="211.333" x2="365.999" y2="211.333"/>
<line fill="none" stroke="#040504" stroke-width="0.5" stroke-miterlimit="10" x1="332.52" y1="257.91" x2="373.999" y2="257.91"/>
<text transform="matrix(1 0 0 1 244.6387 128.667)" font-family="'AdobeSongStd-Light-GBpc-EUC-H'" font-size="12">#E2E9F3</text>
<text transform="matrix(1 0 0 1 372.666 214.4614)" font-family="'AdobeSongStd-Light-GBpc-EUC-H'" font-size="12">#F4ABC7</text>
<text transform="matrix(1 0 0 1 380.666 261.334)" font-family="'AdobeSongStd-Light-GBpc-EUC-H'" font-size="12">#A3D8EA</text>
<text transform="matrix(1 0 0 1 107.2778 334.9453)" font-family="'AdobeSongStd-Light-GBpc-EUC-H'" font-size="12">#F9F4AE</text>
</svg>
